<svg xmlns="http://www.w3.org/2000/svg" viewBox="0 0 100.82 130.75"><defs><style>.cls-1{fill:#abe5f7;}.cls-2{fill:#fff;}</style></defs><g id="Layer_2" data-name="Layer 2"><g id="Left_Ear" data-name="Left Ear"><path class="cls-1" d="M85.05,95.71c-4-.19-8,.91-11.9,2A32.57,32.57,0,0,0,97.88,82.46c2.84-4.64,4.34-10.94,1.13-15.33-2.56-3.49-7.42-4.63-11.68-3.91s-8.09,3-11.79,5.21A34.06,34.06,0,0,0,91.83,51a20.17,20.17,0,0,0,1.71-10.07,11.31,11.31,0,0,0-5.24-8.47c-3.58-2-8.2-1.38-11.8.6s-6.41,5.12-9.15,8.2c6.89-8.18,11.54-19.15,9.1-29.57A17,17,0,0,0,71.7,3,10.52,10.52,0,0,0,62.42.23c-3.2.75-5.74,3.29-7.34,6.16a46,46,0,0,0-3.39,9.24c-4.47,14.77-12.73,29.14-26,37-6,3.58-24,10.76-15.07,20.16,2.11,2.22,4.92,3.7,6.86,6.06a12.61,12.61,0,0,1,.63,14.4c-2.27,3.59-5.92,4.79-10,5.63-4.29.88-8.87,1.78-8.07,7.32a18.89,18.89,0,0,0,3.31,8.32c2.56,3.39,6.22,5.79,10,7.77,14.21,7.5,30.88,9.83,46.8,7.68,9.72-1.31,19.35-4.31,27.47-9.81a23.62,23.62,0,0,0,7.64-7.67c1.78-3.18,2.35-7.2.78-10.49-1.83-3.83-6.18-5.94-10.41-6.27C85.45,95.73,85.25,95.71,85.05,95.71Z"/><path class="cls-2" d="M85,99.42c-.19.93.92,2,2.48,2.26s3-.19,3.17-1.13-.92-2-2.49-2.26S85.16,98.48,85,99.42Z"/><ellipse class="cls-2" cx="62.22" cy="8" rx="6.62" ry="3.97" transform="translate(16.84 51.31) rotate(-50.99)"/><path class="cls-2" d="M75.36,40c.93,1.41,3.6,1.31,6-.24s3.52-4,2.59-5.38-3.6-1.31-6,.24S74.43,38.6,75.36,40Z"/><path class="cls-2" d="M85.45,67.83c.25,1.21,2.09,1.86,4.12,1.44s3.46-1.74,3.21-3-2.1-1.86-4.12-1.44S85.2,66.61,85.45,67.83Z"/></g></g></svg>